<?xml version="1.0"?>
<svg xmlns="http://www.w3.org/2000/svg" viewBox="0 0 512 512" width="512" height="512"><g id="Fill_out_line" data-name="Fill out line"><polygon points="280 64 304 64 304 72 288 88 280 64" style="fill:#eacf4d"/><circle cx="304" cy="64" r="16" style="fill:#eacf4d"/><polygon points="280 144 224 232 251.863 256 304 192 296 152 280 144" style="fill:#a0cc00"/><path d="M224,232l-14.89013,19.85351a17.50628,17.50628,0,0,0,1.62621,22.88257l0,0a17.50628,17.50628,0,0,0,25.58167-.883L251.86264,256Z" style="fill:#ffc7cc"/><polygon points="304 336 304 400 320 456 360 456 352 400 352 336 304 336" style="fill:#85b200"/><path d="M280,488h80V456H320l-25.14439,10.05776A23.63248,23.63248,0,0,0,280,488Z" style="fill:#3d3d3d"/><path d="M336,304l8,72,72,80h6.11147A28.94425,28.94425,0,0,0,448,440v0l-32-56-32-24V304Z" style="fill:#a0cc00"/><path d="M416,456l-17.68918,8.84459A25.88851,25.88851,0,0,0,384,488v0h56l32-24-24-24v0a28.94425,28.94425,0,0,1-25.88852,16Z" style="fill:#4d4d4d"/><path d="M312,96v16l-16,16-16-16-16,16-16-16H232l-8-24a33.963,33.963,0,0,1,0-48l2.52-2.52a33.935,33.935,0,0,1,45.2-2.5A43.36609,43.36609,0,0,1,288,68.8501V72Z" style="fill:#ffc7cc"/><path d="M288,68.8501V72l-5.27-10.53A9.88545,9.88545,0,0,0,264,65.89014V72a43.98209,43.98209,0,0,0-38.32-12.28l-11.53,1.92017A33.77208,33.77208,0,0,1,224,40l2.52-2.52a33.935,33.935,0,0,1,45.2-2.5A43.36609,43.36609,0,0,1,288,68.8501Z" style="fill:#f2e368"/><path d="M280,144l0,0a35.18451,35.18451,0,0,0,4.39608,44.396L288,192V336h64L336,216V120a24,24,0,0,1,24-24H312v16l-16,16-16-16Z" style="fill:#65dcff"/><path d="M361.14541,198.39821,392,256l16,64-1.42913.35728a76.10607,76.10607,0,0,1-57.59648-8.56239l0,0L336,216Z" style="fill:#57c1ff"/><path d="M360,96h0a24,24,0,0,1,24,24v64l-48,40-18.50936-32L336,176V120A24,24,0,0,1,360,96Z" style="fill:#a0cc00"/><path d="M317.49064,192l-18.14,14.76267a16.09684,16.09684,0,0,0-3.23293,21.41386v0a16.09685,16.09685,0,0,0,20.59212,5.46854L336,224Z" style="fill:#ffc7cc"/><rect x="24.00002" y="456" width="135.99998" height="32" rx="15.99998" ry="15.99998" style="fill:gray"/><path d="M104,424H104a32,32,0,0,1,32,32v0a0,0,0,0,1,0,0H72a0,0,0,0,1,0,0v0A32,32,0,0,1,104,424Z" style="fill:#4d4d4d"/><path d="M411.17578,216.72363A90.48306,90.48306,0,0,1,440,282.82324a116.2953,116.2953,0,0,0,34.2876,82.77735l8.05517,8.05566,11.31446-11.3125-8.05567-8.05664A100.40069,100.40069,0,0,1,456,282.82324a106.78485,106.78485,0,0,0-64.10077-97.62939A7.96445,7.96445,0,0,0,392,184V120a32.03635,32.03635,0,0,0-32-32H315.314l-1.91766-1.91772a23.99456,23.99456,0,1,0-23.47491-41.50171,51.3351,51.3351,0,0,0-13.2002-15.84424,41.93344,41.93344,0,0,0-55.85742,3.08691l-2.52051,2.51953a41.96485,41.96485,0,0,0-1.36865,57.87891l7.436,22.30859A7.99967,7.99967,0,0,0,232,120h12.68652l13.65674,13.65723a8.00182,8.00182,0,0,0,11.31348,0L272,131.314v10.35621l-54.58679,85.77929L202.71,247.05371a25.53945,25.53945,0,0,0,10.00165,38.60571L113.24969,417.09131A39.97124,39.97124,0,0,0,64.80493,448H40a24,24,0,0,0,0,48H144a24,24,0,0,0,0-48h-.80493a40.06723,40.06723,0,0,0-15.15137-23.9436l147.947-195.50074c1.28376-1.69628,2.62824-3.32788,4.00928-4.91772V336a8.00008,8.00008,0,0,0,8,8h8v56a8.00881,8.00881,0,0,0,.30762,2.19824l14.016,49.05615-18.43933,7.37549A31.48189,31.48189,0,0,0,272,488a8.00008,8.00008,0,0,0,8,8h80a8.00008,8.00008,0,0,0,8-8V456h-.01a7.98117,7.98117,0,0,0-.07056-1.13184l-6.84881-47.94238,41.9555,46.61719-8.29223,4.14648A33.70046,33.70046,0,0,0,376,488a8.00008,8.00008,0,0,0,8,8h56a8.00222,8.00222,0,0,0,4.7998-1.59961l32-24a8.00031,8.00031,0,0,0,.85694-12.05762l-23.24347-23.2434L422.9458,380.03125a7.99427,7.99427,0,0,0-2.146-2.43164L392,356V330.55591a84.93057,84.93057,0,0,0,16.51172-2.43775l1.4292-.35742a7.99978,7.99978,0,0,0,5.82031-9.70117l-16-64a8.00973,8.00973,0,0,0-.709-1.83691L372.99786,203.582l7.05487-5.87915A90.66006,90.66006,0,0,1,411.17578,216.72363ZM152,472a8.00917,8.00917,0,0,1-8,8H40a8,8,0,0,1,0-16H144A8.00917,8.00917,0,0,1,152,472ZM81.37622,448a23.99486,23.99486,0,0,1,45.24756,0ZM296,328V239.187a24.24176,24.24176,0,0,0,13.54883,4.15088,23.9752,23.9752,0,0,0,10.73877-2.53711l10.2641-5.13232L342.8623,328Zm8.40039-115.03223,10.86279-8.84082,9.55518,16.51953-11.68555,5.84375a8.09716,8.09716,0,0,1-8.73242-13.52246Zm13.864-32.21093a107.15373,107.15373,0,0,0-22.46252,9.5039,7.9905,7.9905,0,0,0-2.14563-3.918l-3.603-3.60254a27.25808,27.25808,0,0,1-3.445-34.22314l.14129-.22217-.00934-.00586A7.99187,7.99187,0,0,0,288,144V131.314l2.34326,2.34327a8.00063,8.00063,0,0,0,11.31348,0l16-16A8.00076,8.00076,0,0,0,320,112v-8h12.29443A31.80747,31.80747,0,0,0,328,120v52.34082ZM304,56a8,8,0,1,1-8,8A8.00917,8.00917,0,0,1,304,56ZM232.17676,43.1377a25.93236,25.93236,0,0,1,34.54638-1.90918,35.54077,35.54077,0,0,1,6.49909,6.79516,17.90759,17.90759,0,0,0-15.18805,9.5857,52.12825,52.12825,0,0,0-32.858-5.8982,25.89121,25.89121,0,0,1,4.4801-6.054ZM264,116.68652l-10.34326-10.34375A8.00035,8.00035,0,0,0,248,104H237.76611l-6.17675-18.53027a7.99787,7.99787,0,0,0-1.93213-3.126,25.89731,25.89731,0,0,1-7.21106-13.97485l4.546-.75757a36.06413,36.06413,0,0,1,31.35107,10.0459A8.00038,8.00038,0,0,0,272,72V65.89062A1.89237,1.89237,0,0,1,273.89014,64a1.871,1.871,0,0,1,.98291.27832,1.90327,1.90327,0,0,1,.70263.77148l5.27,10.53028.00672-.00342a7.99518,7.99518,0,0,0,1.49084,2.08057L304,99.31348v9.373l-8,8-10.34326-10.34375a8.00063,8.00063,0,0,0-11.31348,0ZM216.39307,269.0791a9.55324,9.55324,0,0,1-.8833-12.42578l9.75421-13.00561,11.64764,10.0332L223.15814,271.855A9.43433,9.43433,0,0,1,216.39307,269.0791Zm46.83886-50.17871-16.64569,21.99609-12.12091-10.44043L268.34979,177.209a42.9297,42.9297,0,0,0,10.39,16.84473L280,195.31445v5.94873A108.38428,108.38428,0,0,0,263.23193,218.90039ZM290.18408,480a15.59171,15.59171,0,0,1,7.64258-6.51465L321.54053,464H352v16Zm53.89649-78.86816L350.77588,448h-24.7417L312,398.87988V344h20.39514l3.65369,32.88379a7.99684,7.99684,0,0,0,2.00488,4.46777L344,387.9585V400A7.97979,7.97979,0,0,0,344.08057,401.13184ZM437.3335,480H393.87012a17.81853,17.81853,0,0,1,8.01855-8l15.99957-8h4.22309a36.72184,36.72184,0,0,0,26.93377-11.64087l10.7757,10.77564Zm-27.458-90.59375,28.82568,50.44531A20.8111,20.8111,0,0,1,422.11133,448H419.563l-67.896-75.43945L348.49384,344H352a8.00025,8.00025,0,0,0,7.92969-9.05762l-1.28412-9.63086A83.24388,83.24388,0,0,0,376,329.78906V360a8.0009,8.0009,0,0,0,3.2002,6.40039Zm-25.396-130.50293,13.74463,54.97852a67.5178,67.5178,0,0,1-42.06543-7.22168L345.47321,226.519l14.97522-12.47925ZM376,180.25293l-37.82812,31.52344-8.94928-15.47144-1.493-2.5813,13.50238-11.67187A7.99987,7.99987,0,0,0,344,176V120a16,16,0,0,1,32,0Z"/></g></svg>
